<svg width="1163" height="137" viewBox="0 0 1163 137" fill="none" xmlns="http://www.w3.org/2000/svg">
<path d="M252 14L268.495 135M252 14L286.168 130.255M252 14L303.842 123.137M252 14L321.515 113.647M252 14L335.653 101.784M252 14L358.04 70.9412M252 14L348.614 87.549M252 14L365.109 51.9608M252 14L371 32.9804" stroke="#FFF7F7"/>
<path d="M251 136V13.3828" stroke="#FFF7F7"/>
<path d="M371 14.4219C371 173.566 128 179.461 128 14.4219H371Z" stroke="#FFF7F7"/>
<path d="M1153.86 0C1153.86 7.2 1150.43 12 1147 12C1150.43 12 1153.86 21.6 1153.86 24C1155 19.2 1157.29 12 1163 12C1155 12 1155 7.2 1153.86 0Z" fill="white"/>
<path d="M-3.45835e-05 13H1151" stroke="white"/>
</svg>
